<svg xmlns="http://www.w3.org/2000/svg" width="428.922" height="341.169" viewBox="0 0 428.922 341.169">
  <g id="logo" transform="translate(0.014 -0.025)">
    <g id="Layer_1" data-name="Layer 1" transform="translate(-0.014 0.025)">
      <path id="Pfad_1" data-name="Pfad 1" d="M164.91,60.815c15.069-.227,30.487-.175,46.22.315s31.746,1.416,48.021,3.042A401.663,401.663,0,0,1,308.587,71.9c4.161.944,8.339,1.993,12.517,3.2s8.373,2.517,12.569,4.056A134.734,134.734,0,0,1,346.207,84.4a86.692,86.692,0,0,1,12.359,7.185l7.115,4.982-1.975,4.895c-6.992,17.306-6.87,8.164-8.094,11.328l-1.1.332-.507.122h-1.066l-.874.1-1.311.157-2.36.227-4.51.4-8.915.769-17.761,1.573c-11.817,1.1-23.652,2.29-35.434,3.6-23.565,2.622-46.989,5.716-69.924,9.545a644.825,644.825,0,0,0-66.9,14.579,277.942,277.942,0,0,0-30.732,10.384l-3.5,1.538-.822.385-.35.192a13.811,13.811,0,0,0-1.329.752,10.312,10.312,0,0,0-2.168,1.748,4.056,4.056,0,0,0-1.154,1.975,2.59,2.59,0,0,0,0,.367c0,.1,0,.262.122.332a2.15,2.15,0,0,0,.944,0,8.507,8.507,0,0,0,1.748-.28l3.059-.629h.839l5.524-.7c3.689-.385,7.412-.717,11.188-.944,1.888-.122,3.793-.227,5.716-.3h2.57l2.535-.14c3.5-.192,6.992-.437,10.489-.664,14.3-.979,28.844-1.888,43.441-2.5s29.281-.944,44.035-.909,29.578.455,44.437,1.4,29.718,2.43,44.717,4.737a309.424,309.424,0,0,1,44.682,10,203.487,203.487,0,0,1,22.044,8.2c1.748.8,3.636,1.748,5.437,2.517l2.692,1.364.7.35.507.262.559.3,2.325,1.329,4.65,2.657c1.521.926,2.919,1.923,4.388,2.867,2.989,1.888,5.559,3.968,8.269,5.979.385.245.822.489,1.171.734l.647.892,1.294,1.748,1.294,1.748.332.437.157.227a.968.968,0,0,1,0,.21l.245.822,1,3.339.122.42h0v.1a3.246,3.246,0,0,0,.1.927,18.735,18.735,0,0,1,0,2.22,21.957,21.957,0,0,1-2.045,8.426,27.655,27.655,0,0,1-4.877,7.132,41.047,41.047,0,0,1-16.869,10.192c-.839.332-1.748.559-2.64.822s-1.748.524-2.675.752c-1.853.4-3.671.839-5.524,1.189l-2.325.367c-.542.1-1.136.157-1.748.245-1.136.14-2.325.3-3.321.367-4.213.42-7.971.647-11.782.944s-7.482.559-11.188.874q-11.083.944-22.009,2.342a617.507,617.507,0,0,0-85.832,17.673c-.175-.594,3.112-2.255,4.685-3.374s1.416-1.748-5.646-.1l-9.912,2.447c-3.112.752-5.979,1.556-8.741,2.22l-7.534,1.905-6.45,1.748c-7.954,1.958-13.286,3.251-16.922,3.9-7.255,1.276-7.657.157-8.059-.979-.1-.3,2.447-1.329,6.1-2.657l6.118-2.15L213,263.736l3.321-1.066c8.741-2.832,15.733-5.035,8.531-3.391,2.6-.857,5.367-1.661,8.164-2.517l8.636-2.622c5.874-1.748,11.9-3.5,17.866-5.07,2.989-.8,5.926-1.661,8.828-2.377l8.5-2.185c2.727-.7,5.4-1.311,7.919-1.923s4.912-1.224,7.132-1.748c8.915-2.08,15.191-3.5,16.485-3.9.664-.245,0-.262-2.028,0s-5.751.787-11.153,1.748c-1.748.245-4.335.612-7.307,1.206s-6.468,1.311-10.279,2.15-7.919,1.888-12.237,2.937-8.741,2.255-13.146,3.5L239.5,252.094c-4.23,1.241-8.3,2.43-12.062,3.5s-7.167,2.1-10.1,2.9-5.4,1.381-7.2,1.748c-7.255,1.521-4.073-.507-.874-2.552a15.54,15.54,0,0,0,3.5-2.6c.315-.559-.717-.734-4.353,0l-12.709,4.335-15.226,5.472c-5.244,1.905-10.366,3.916-15.121,5.7-2.395.892-4.632,1.748-6.73,2.622l-5.734,2.273c-14.177,4.353,12.412-8.828-1.346-3.356-20.872,7.674-44.769,17.778-69.924,29.578S30.148,326.878,4.1,340.863c-.28-.524-3.828.682-4.073.227s.559-.892,2.884-2.377,6.346-3.793,12.831-7.377c31.816-16.8,64.191-32.777,97.352-47.3a1080.892,1080.892,0,0,1,101.688-39.193c17.359-5.664,34.962-10.8,52.705-15.279l6.678-1.748,6.713-1.556c2.238-.507,4.458-1.066,6.713-1.538l6.748-1.433c2.255-.489,4.51-.944,6.765-1.381l6.783-1.311c4.545-.8,9.073-1.661,13.635-2.36,9.108-1.486,18.285-2.744,27.48-3.741q6.905-.769,13.793-1.363c4.58-.385,9.178-.734,13.635-1.066l3.3-.262,1.626-.122h1.591l1.538-.157h.752l.682-.087,1.346-.175.682-.1h.35a3.112,3.112,0,0,0,.961-.315,1.241,1.241,0,0,0,.7-.664.4.4,0,0,0,0-.245h-.21l-.42-.28c-.227-.122-.454-.262-.682-.367l-2.849-1.433-4.44-2.063a175.432,175.432,0,0,0-18.722-6.992,284.343,284.343,0,0,0-40.207-9.02c-13.74-2.15-27.708-3.5-41.78-4.528s-28.215-1.416-42.409-1.5-28.424.14-42.671.664-28.529,1.294-42.934,2.185l-10.943.629c-1.87.1-3.723.192-5.786.245h-2.552l-2.5.1c-3.356.175-6.748.437-10.192.752l-5.157.524-4.091.455-5.332.664-10.7,1.4c-3.5.454-7.132.909-10.594,1.259a80.173,80.173,0,0,1-9.685.507A26.764,26.764,0,0,1,67.8,192.1l-.734-.227-.664-.245c-.455-.157-.839-.332-1.259-.507a21.681,21.681,0,0,1-2.115-1.154c-.629-.4-1.206-.822-1.748-1.241a15.359,15.359,0,0,1-1.451-1.346,15.979,15.979,0,0,1-1.294-1.521,15.067,15.067,0,0,1-1.311-2.08,5.05,5.05,0,0,1-.35-.752l-.157-.42v-.1h0v-.192a14.147,14.147,0,0,1-.489-1.451c-.28-1-.664-1.923-.979-2.884.315-1.888.542-3.654.874-5.384a34.961,34.961,0,0,1,1.433-5.087,39.647,39.647,0,0,1,5.384-10.192,55.608,55.608,0,0,1,9.51-9.947,91.652,91.652,0,0,1,13.985-9.37c2.587-1.451,5.244-2.832,8.059-4.143,1.381-.664,2.762-1.294,4.16-1.923l2.622-1.136c3.059-1.311,6.136-2.517,9.2-3.671,6.153-2.29,12.237-4.318,18.425-6.188,12.237-3.706,24.6-6.783,36.9-9.51s24.613-5.07,36.938-7.2c24.631-4.265,49.3-7.622,73.963-10.489q18.477-2.15,36.99-3.916l18.478-1.748,9.2-.822,4.51-.42,2.133-.21h1.049l.367,2.482.7,4.545.332,1.975.315,1.748c.1.542.21,1.066.332,1.591s.157.822.262,1.241a7.1,7.1,0,0,0,.262.944.926.926,0,0,0,.227.455l-8.741,12.5a72.425,72.425,0,0,0-12.377-6.66,132.263,132.263,0,0,0-14.492-5.244,255.6,255.6,0,0,0-31.588-7.08,581.381,581.381,0,0,0-66.428-6.538c-11.205-.559-22.463-.874-33.721-1.031-5.821-.157-11.433-.157-17.1-.157H150.191l-7.919.122-8.618.157-17.271.385a106.336,106.336,0,0,1-15.733-.507,34.4,34.4,0,0,1-10.226-2.657l-.892-.42-.8-.437-.752-.42c-.227-.157-.489-.3-.7-.455a14.159,14.159,0,0,1-1.241-.892c-.42-.3-.769-.629-1.136-.944a18.914,18.914,0,0,1-1.94-1.993,18.653,18.653,0,0,1-1.748-2.342,20.487,20.487,0,0,1-1.573-3.217,19.823,19.823,0,0,1-.961-4.982V66.3c-5.367.664,7.307-1,6.014-.839h0l.14-.874.28-1.748c.682-4.073,1.346-8.111,2.028-12.149l2.5-1.171,2.552-1.136,5.1-2.308,10.174-4.58,2.552-1.136c.839-.385,1.748-.769,2.622-1.136l5.507-2.185,11-4.353L134.65,30.5l2.8-1.049,2.5-.874,5.839-2.045,2.814-1.014,2.937-.961,5.8-1.853c15.733-5,31.676-9.282,47.811-12.709A433.935,433.935,0,0,1,303.763.068c7.692.227,13.723.7,18.32,1.206l3.182.385,2.675.4c.8.122,1.538.262,2.185.385l.944.192.944.192c1.748.455,2.15.717,1.643.839a7.691,7.691,0,0,1-1.486,0l-3.339-.122c-5.052-.157-13.233-.367-23.005-.122-4.895.087-10.157.367-15.628.664s-11.1.8-16.712,1.4a85.219,85.219,0,0,1,15.051-.35c3.776.227,7.552.455,15.121.28,0,.437-1.923.926-5.681,1.451S288.606,8,281.159,8.861s-16.695,1.905-27.743,3.5-23.844,3.863-38.389,6.853c14.544-2.919,29.211-5.07,43.983-6.538,1.853-.122,3.251-.157,4.265-.14a11.241,11.241,0,0,1,2.028.14c.7.157.262.437-.629.787s-2.273.717-3.391,1.119-2.01.8-1.975,1.1l-5.472.559-5.244.629c-3.5.4-6.625.909-9.352,1.329s-4.982.839-6.555,1.189-2.465.594-2.447.734l.4,2.377c7.2-1.241,18.075-2.745,28.984-3.828s21.886-1.643,29.176-1.748c-14.6.3-29.176,1.748-29.106,2.395l.245,2.395-5.577.664-5.856.752-3.024.385-3.077.455c-2.08.3-4.2.577-6.311.909-8.531,1.311-17.481,2.884-26.379,4.7A392.4,392.4,0,0,0,160.592,42.9l.559,1.748c13.863-4.23,31.291-9.2,48.947-13.058,8.845-1.905,17.726-3.6,26.222-4.982,2.115-.35,4.213-.629,6.276-.944l3.059-.437,3.024-.385,5.839-.734,5.559-.559A79.975,79.975,0,0,0,247.6,25.923c-1.748.594-1.748,1.049-1.591,1.643q-16.03,2.342-31.9,5.524c-10.594,2.15-21.152,4.545-31.571,7.429l-3.916,1.049-3.9,1.154c-2.587.769-5.244,1.521-7.779,2.325-5.139,1.748-10.3,3.3-15.366,5.244l-3.811,1.381c-.559.227-1.031.4-1.5.612-.944.4-1.87.8-2.745,1.206a42.305,42.305,0,0,0-4.51,2.43c2.273-.944,4.528-1.87,6.835-2.71.577-.227,1.136-.455,1.748-.647l4.3-1.521,5.1-1.748,5.122-1.748c-2.342,1.066-5.052,2.15-7.989,3.409-1.486.629-3.024,1.259-4.65,1.905l-.594.245-.315.122h-.14l-.385.192-.629.332c-.857.455-1.748.857-2.552,1.276s-1.748.822-2.692,1.241l-4.056,1.748-1.241.559h-.245a.961.961,0,0,1,0,.315,1.363,1.363,0,0,0,0,.647,1.4,1.4,0,0,0,.892.769,5.245,5.245,0,0,0,1.154.28,41.96,41.96,0,0,0,4.982.192H148.9Z" transform="translate(0.014 -0.025)" fill="#130f0e"/>
    </g>
  </g>
</svg>
